<svg id="glipy_copy_4" data-name="glipy copy 4" xmlns="http://www.w3.org/2000/svg" viewBox="0 0 64 64"><title>1</title><path d="M32,2A30,30,0,1,0,62,32,30.03661,30.03661,0,0,0,32,2ZM24.86,19.14a7.14,7.14,0,1,1,14.28,0V32a7.14,7.14,0,0,1-14.28,0ZM45.57,31.2A11.17734,11.17734,0,0,1,34.41,42.36h-1.7v8.21h5.72a.715.715,0,0,1,0,1.43H25.57a.715.715,0,0,1,0-1.43h5.72V42.36h-1.7A11.17734,11.17734,0,0,1,18.43,31.2V28.79a.71491.71491,0,0,1,.71-.72h3.22a.715.715,0,0,1,0,1.43h-2.5v1.7a9.74118,9.74118,0,0,0,9.73,9.73H34.41a9.74118,9.74118,0,0,0,9.73-9.73V29.5h-2.5a.715.715,0,0,1,0-1.43h3.22a.71491.71491,0,0,1,.71.72Z"/><path d="M29.59,32.71H34.41a.71006.71006,0,1,0,0-1.42H29.59a.71006.71006,0,1,0,0,1.42Z"/><path d="M29.59,26.29H34.41a.72341.72341,0,0,0,.72-.72.71492.71492,0,0,0-.72-.71H29.59a.71492.71492,0,0,0-.72.71A.72341.72341,0,0,0,29.59,26.29Z"/><path d="M29.59,19.86H34.41a.715.715,0,1,0,0-1.43H29.59a.715.715,0,1,0,0,1.43Z"/></svg>