<?xml version="1.0" encoding="UTF-8"?>
<svg id="Layer_2" xmlns="http://www.w3.org/2000/svg" viewBox="0 0 432.45 443.91">
  <defs>
    <style>
      .cls-1 {
        fill: #31233a;
      }

      .cls-2 {
        fill: #ebdbbd;
      }
    </style>
  </defs>
  <g id="Layer_1-2" data-name="Layer_1">
    <g>
      <path class="cls-2" d="M377.42,213.32c-.16-.22-.33-.53-.44-.78-.22-.49-.36-.69-.78-1.14-.34-.36-.43-.66-.46-1.11-.01-.21.06-.43.04-.65-.05-.55-.42-.77-.66-1.23-.44-.86-1.09-1.62-1.92-2.31-.74-.61-1.5-.6-2.37-.97-1.08-.45-2.19-.32-3.45-.32-.83,0-1.65,0-2.48,0-1.35.02-2.42-.35-3.7-.58-.9-.16-1.6-.47-2.47-.66-.72-.16-1.51-.05-2.25-.05-1.7,0-3.05.32-4.75.32-1.6,0-3.04-.32-4.62-.56-1.47-.23-2.13-1.04-3.68-1.05-1.12,0-2.24,0-3.36,0-.69,0-1.18,0-1.82-.19-1.09-.31-2.33-.34-3.33-.79-1.1-.5-1.39-1.1-2.64-.64-1.06.39-1.94.42-3.13.28-.82-.1-1.61-.32-2.42-.44-1.82-.28-3.7-.12-5.54-.16-1.52-.03-3.17-.03-3.32-1.4-.09-.82-.1-1-1.35-1.14-.78-.09-1.37.02-2.1.13-2.43.37-4.94.47-7.39.83-.51.07-2.8.83-2.26-.33-1.63-.58-3.52-1.9-5.31-1.92-1.1-.01-2.21,0-3.31,0-1.38,0-2.06.08-3.17.65-.38.2.06.16-.58.34-.68.19-2.31.03-3.01,0-1.11-.05-2.34-.26-3.46-.4-1.58-.2-2.92-.61-4.12-1.38-1.84-1.19-4.39-1.46-6.69-1.45-2.78.02-5.53-1-8.39-.96-2.99.04-5.99,0-8.98,0-2.57,0-5.12.32-7.65.72-2.07.33-4.48.99-6.42.26-.61-.23-1.25-.64-1.87-.85-.82-.28-1.73-.13-2.6-.12-.98,0-1.96,0-2.93,0-1.18,0-2.29.02-3.31-.51-1.16-.61-2.26-1.01-3.55-1.49-1.14-.42-3.68-.86-4.41-1.76-.65-.8.02-1.84-.26-2.69-.06-.19-.17-.33-.3-.43H54.43c-.05.2-.14.4-.3.59-.34.41-.73.63-.84,1.15-.18.81.26,1.07-.58,1.73-.33.27-.73.22-1.07.55-.3.29-.37.85-.41,1.17-.11.92.08,1.23-.38,2.06-.82,1.46-.48,2.73.8,3.94.54.51,1.07.75,1.27,1.34.2.58-.02,1.41-.02,2.04,0,1.26,0,2.52,0,3.78,0,.97-.11,1.98-.02,2.95.04.47,0,.6.47.94.48.36,1.51.26,1.88.65.24.26.12.47.23.74.12.29.56.71.64.94.41,1.12.18,2.84-.12,3.95-.14.53-.49,1.29.05,1.8.38.35.88.3,1.39.46,1.18.38,1.05.67,1.28,1.56.21.78.55,1.32,1.17,1.81.75.59.55.61.81,1.53.18.65.45,1.1.43,1.81,0,.25-.08.56-.04.81.11.59.74,1.05.82,1.63.13.84-.83,1.49-.8,2.41.01.39-.26,1.34.05,1.69.37.42,1.81.66,2.34,1.11.67.57.65,1.02.02,1.52-1.19.94-2.66,2.39-2.43,3.85.2,1.26,1.44,1.36,2.45,2.11.75.56.28,1.27.84,2.01.37.49.61.57.85,1.1.18.4.36.94.42,1.36.13.88.04,1.87-.01,2.76-.09,1.6-1.73,2.88-2.69,4.24-.54.77-1.26,1.72-1.46,2.57-.09.4-.07,1.13.1,1.53.22.5.95.82,1.12,1.36.29.89-.58,1.52-.08,2.42.38.68,1.18,1.41,1.77,1.99.98.96,1.69.53,1.64,1.93-.02.65-.11,1.25.36,1.84.64.81,1.58,1.03,1.7,2,.16,1.3-.31,2.14.72,3.24.83.88.5,2.16.5,3.26,0,.54-.09,1.14-.02,1.68.09.77.73,1.36.87,2.11.11.56-.12,1.18-.05,1.75.15,1.11,1.14,1.67,1.59,2.67.46,1.03.87,2.1.88,3.19,0,.13.03.24.05.35h13.52s.02,0,.04,0c1-.25,1.63-.95,2.5-1.32.33-.14.8-.16,1.14-.29.32-.12.74-.48,1.11-.53.85-.12,2.18.3,3.14.28,1-.02,1.86-.27,2.84-.34,1.02-.08,2.13.01,3.15.02.92,0,1.3.06,2.05-.3.9-.43,1.43-.79,2.57-.67,1.81.18,3.36.67,5.26.66,1.64,0,3.25.16,4.75-.32,1.25-.4,2.46-.33,3.77-.32,1.8,0,3.6,0,5.41,0,1.89,0,3.78.02,5.68,0,.55,0,1.32-.16,1.66.3.23.32-.19.65.2.95.42.32,1.82-.26,2.39-.29,3.36-.13,6.47.25,9.76-.63-.06.68,1.48.58,2.06.64.58.07.93.24,1.5.33,1.19.19,3.04.09,4.23-.09.65-.1,1.18-.36,1.85-.24.68.12,1.06.58,1.85.65,1.21.12,2.17-.25,3.26-.35.6-.06,1.25.04,1.86.02,1.02-.02,1.27-.29,2.07-.67,1.03-.49,1.67.02,2.86.01.99,0,2,.04,2.98,0,1.09-.04,1.99-.33,3.14-.33,1.32,0,2.71-.1,4.02-.02.82.05,1.56.32,2.39.35.63.03,1.32-.35,1.83-.3,1.16.11,1.33,1.58,2.87,1.6.64,0,1.21-.3,1.84-.36.8-.08,1.62.1,2.43-.01,1.37-.19,2.53-.29,3.94-.29.48,0,.96-.03,1.44,0,.6.03,1.13.33,1.71.29.77-.06,1.41-.6,2.31-.63.82-.03,1.35.05,2.1.18.82.14,1.69.33,2.53.1.68-.19,1.15-.51,1.92-.59.16-.02.58-.06.74-.01.48.14.33.35.63.53.87.51,3.48.14,4.44.14,1.68,0,3.39.12,5.02-.16.85-.14,1.75-.05,2.56-.19.27-.05.18-.24.5-.25.47,0,.9.28,1.33.41,1.34.4,3.13.19,4.57.19s2.31-.42,3.7-.34c.8.04.92.52,1.62.7.69.17,1.74-.11,2.38-.27,2.68-.63,5.23-.17,7.97-.38.91-.07,1.31-.65,2.06-.71.34-.03,1.19.33,1.53.44,1.49.45,4.22.5,5.72.05,1.34-.4,2.28-.45,3.71-.45,1.24,0,3.46.31,4.49-.18.54-.26.92-.81,1.46-1.08.85-.44.88-.1,1.74.15,1.31.39,3.66.32,5.02,0,1.21-.28,2.08-.83,3.3-.81.65,0,1.3,0,1.96,0,.77,0,.95-.18,1.56-.29,1.35-.25,2.75-.06,3.9.45.84.38,1.47.48,2.44.49.62,0,1.88.17,2.47.02.47-.12.52-.49.97-.65.52-.19,1.74-.02,2.3-.02,1.89,0,3.85.16,5.67-.31.96-.25,1.6-.73,2.46-1.08,1.02-.41,2.21-.16,3.34-.24,1.28-.09,2.17-.36,3.31-.75,1.17-.4,1.52-.01,2.66.31,1.1.31,2.57.21,3.67-.02,1.6-.34,3.45-.16,5.13-.16.82,0,1.65-.01,2.47,0,.24,0,.61.06.82.02.13-.02.42-.28.43-.28,1.7-.18,3.31.84,4.88,1.16,1.81.37,2.9-.89,4.69-.9.82,0,1.67-.06,2.48,0,1,.07,1.99.44,3.01.36.87-.07.98-.49,1.77-.7.87-.24,2.01.29,2.87.38.99.11,2.81.21,3.78-.06.72-.2,1.13-.89,1.88-.95.35-.03.71.23,1.03.29.89.16,1.85.08,2.76.08,1.62,0,2.87-.02,4.4-.26,1.1-.17,2.28.13,3.34-.05.8-.13,1.43-.8,2.33-.72.54.05.82.38,1.27.54.69.25,1.4.36,2.14.43,2.12.21,3.69-.18,5.7-.54,1.35-.24,2.95-.06,4.35-.06.75,0,1.79.19,2.48-.05.65-.22.36-.36.76-.6.35-.2.83-.27,1.16-.47,1.2-.73,1.35-1.93,1.09-3.04-.2-.88-1.27-1.45-1.57-2.28-.27-.73.25-.99.8-1.48,1.61-1.42,1.16-2.86,1.17-4.63,0-.98.23-2.44,1.69-2.84.25-.07.6.05.8,0,.41-.11.63-.29,1.02-.46.74-.33,1.49-.45,1.78-1.17.25-.59.18-1.05-.38-1.44-.83-.58-2-.74-2.76-1.44-.6-.56-.5-.87-.47-1.61.06-1.51-.5-1.95-1.95-2.93-.76-.51-1.72-1.1-2.07-1.87-.34-.72-.14-1.71-.1-2.44.06-1.06-.01-.91-1.08-1.39-.83-.37-2.69-1.08-3.03-1.79-.39-.79,0-2.19,0-3.03,0-.58-.15-1.31.02-1.87,1.74-.27,1.83-1.11,2.33-2.28.46-1.1.94-2.37,1.78-3.33.75-.85,2.03-1.49,1.57-2.65-.62-1.56-2.39-1.95.03-3.14.72-.35,1.51-.8,2-1.36.48-.09.65-.35.52-.77-.03-.55-.04-1.1-.04-1.64,0-1.31.8-2.21,1.97-3.14,1.08-.86,1.91-1.64,2.54-2.83.23-.43.43-.87.67-1.3v-2.86c-.25-.16-.43-.36-.64-.64Z"/>
      <path class="cls-1" d="M371.08,208.02c-.16-.22-.33-.53-.44-.78-.22-.49-.36-.69-.78-1.14-.34-.36-.43-.66-.46-1.11-.01-.21.06-.43.04-.65-.05-.55-.42-.77-.66-1.23-.44-.86-1.09-1.62-1.92-2.31-.74-.61-1.5-.6-2.37-.97-1.08-.45-2.19-.32-3.45-.32-.83,0-1.65,0-2.48,0-1.35.02-2.42-.35-3.7-.58-.9-.16-1.6-.47-2.47-.66-.72-.16-1.51-.05-2.25-.05-1.7,0-3.05.32-4.75.32-1.6,0-3.04-.32-4.62-.56-1.47-.23-2.13-1.04-3.68-1.05-1.12,0-2.24,0-3.36,0-.69,0-1.18,0-1.82-.19-1.09-.31-2.33-.34-3.33-.79-1.1-.5-1.39-1.1-2.64-.64-1.06.39-1.94.42-3.13.28-.82-.1-1.61-.32-2.42-.44-1.82-.28-3.7-.12-5.54-.16-1.52-.03-3.17-.03-3.32-1.4-.09-.82-.1-1-1.35-1.14-.78-.09-1.37.02-2.1.13-2.43.37-4.94.47-7.39.83-.51.07-2.8.83-2.26-.33-1.63-.58-3.52-1.9-5.31-1.92-1.1-.01-2.21,0-3.31,0-1.38,0-2.06.08-3.17.65-.38.2.06.16-.58.34-.68.19-2.31.03-3.01,0-1.11-.05-2.34-.26-3.46-.4-1.58-.2-2.92-.61-4.12-1.38-1.84-1.19-4.39-1.46-6.69-1.45-2.78.02-5.53-1-8.39-.96-2.99.04-5.99,0-8.98,0-2.57,0-5.12.32-7.65.72-2.07.33-4.48.99-6.42.26-.61-.23-1.25-.64-1.87-.85-.82-.28-1.73-.13-2.6-.12-.98,0-1.96,0-2.93,0-1.18,0-2.29.02-3.31-.51-1.16-.61-2.26-1.01-3.55-1.49-1.14-.42-3.68-.86-4.41-1.76-.65-.8.02-1.84-.26-2.69-.06-.19-.17-.33-.3-.43H48.09c-.05.2-.14.4-.3.59-.34.41-.73.63-.84,1.15-.18.81.26,1.07-.58,1.73-.33.27-.73.22-1.07.55-.3.29-.37.85-.41,1.17-.11.92.08,1.23-.38,2.06-.82,1.46-.48,2.73.8,3.94.54.51,1.07.75,1.27,1.34.2.58-.02,1.41-.02,2.04,0,1.26,0,2.52,0,3.78,0,.97-.11,1.98-.02,2.95.04.47,0,.6.47.94.48.36,1.51.26,1.88.65.24.26.12.47.23.74.12.29.56.71.64.94.41,1.12.18,2.84-.12,3.95-.14.53-.49,1.29.05,1.8.38.35.88.3,1.39.46,1.18.38,1.05.67,1.28,1.56.21.78.55,1.32,1.17,1.81.75.59.55.61.81,1.53.18.65.45,1.1.43,1.81,0,.25-.08.56-.04.81.11.59.74,1.05.82,1.63.13.84-.83,1.49-.8,2.41.01.39-.26,1.34.05,1.69.37.42,1.81.66,2.34,1.11.67.57.65,1.02.02,1.52-1.19.94-2.66,2.39-2.43,3.85.2,1.26,1.44,1.36,2.45,2.11.75.56.28,1.27.84,2.01.37.49.61.57.85,1.1.18.4.36.94.42,1.36.13.88.04,1.87-.01,2.76-.09,1.6-1.73,2.88-2.69,4.24-.54.77-1.26,1.72-1.46,2.57-.09.4-.07,1.13.1,1.53.22.5.95.82,1.12,1.36.29.89-.58,1.52-.08,2.42.38.68,1.18,1.41,1.77,1.99.98.96,1.69.53,1.64,1.93-.02.65-.11,1.25.36,1.84.64.81,1.58,1.03,1.7,2,.16,1.3-.31,2.14.72,3.24.83.88.5,2.16.5,3.26,0,.54-.09,1.14-.02,1.68.09.77.73,1.36.87,2.11.11.56-.12,1.18-.05,1.75.15,1.11,1.14,1.67,1.59,2.67.46,1.03.87,2.1.88,3.19,0,.13.03.24.05.35h13.52s.02,0,.04,0c1-.25,1.63-.95,2.5-1.32.33-.14.8-.16,1.14-.29.32-.12.74-.48,1.11-.53.85-.12,2.18.3,3.14.28,1-.02,1.86-.27,2.84-.34,1.02-.08,2.13.01,3.15.02.92,0,1.3.06,2.05-.3.9-.43,1.43-.79,2.57-.67,1.81.18,3.36.67,5.26.66,1.64,0,3.25.16,4.75-.32,1.25-.4,2.46-.33,3.77-.32,1.8,0,3.6,0,5.41,0,1.89,0,3.78.02,5.68,0,.55,0,1.32-.16,1.66.3.23.32-.19.65.2.95.42.32,1.82-.26,2.39-.29,3.36-.13,6.47.25,9.76-.63-.06.68,1.48.58,2.06.64.58.07.93.24,1.5.33,1.19.19,3.04.09,4.23-.09.65-.1,1.18-.36,1.85-.24.68.12,1.06.58,1.85.65,1.21.12,2.17-.25,3.26-.35.6-.06,1.25.04,1.86.02,1.02-.02,1.27-.29,2.07-.67,1.03-.49,1.67.02,2.86.01.99,0,2,.04,2.98,0,1.09-.04,1.99-.33,3.14-.33,1.32,0,2.71-.1,4.02-.02.82.05,1.56.32,2.39.35.63.03,1.32-.35,1.83-.3,1.16.11,1.33,1.58,2.87,1.6.64,0,1.21-.3,1.84-.36.8-.08,1.62.1,2.43-.01,1.37-.19,2.53-.29,3.94-.29.48,0,.96-.03,1.44,0,.6.03,1.13.33,1.71.29.77-.06,1.41-.6,2.31-.63.82-.03,1.35.05,2.1.18.82.14,1.69.33,2.53.1.68-.19,1.15-.51,1.92-.59.16-.02.58-.06.74-.01.48.14.33.35.63.53.87.51,3.48.14,4.44.14,1.68,0,3.39.12,5.02-.16.85-.14,1.75-.05,2.56-.19.27-.05.18-.24.5-.25.47,0,.9.28,1.33.41,1.34.4,3.13.19,4.57.19s2.31-.42,3.7-.34c.8.04.92.52,1.62.7.69.17,1.74-.11,2.38-.27,2.68-.63,5.23-.17,7.97-.38.91-.07,1.31-.65,2.06-.71.34-.03,1.19.33,1.53.44,1.49.45,4.22.5,5.72.05,1.34-.4,2.28-.45,3.71-.45,1.24,0,3.46.31,4.49-.18.54-.26.92-.81,1.46-1.08.85-.44.88-.1,1.74.15,1.31.39,3.66.32,5.02,0,1.21-.28,2.08-.83,3.3-.81.65,0,1.3,0,1.96,0,.77,0,.95-.18,1.56-.29,1.35-.25,2.75-.06,3.9.45.84.38,1.47.48,2.44.49.62,0,1.88.17,2.47.02.47-.12.52-.49.97-.65.52-.19,1.74-.02,2.3-.02,1.89,0,3.85.16,5.67-.31.96-.25,1.6-.73,2.46-1.08,1.02-.41,2.21-.16,3.34-.24,1.28-.09,2.17-.36,3.31-.75,1.17-.4,1.52-.01,2.66.31,1.1.31,2.57.21,3.67-.02,1.6-.34,3.45-.16,5.13-.16.82,0,1.65-.01,2.47,0,.24,0,.61.06.82.02.13-.02.42-.28.43-.28,1.7-.18,3.31.84,4.88,1.16,1.81.37,2.9-.89,4.69-.9.82,0,1.67-.06,2.48,0,1,.07,1.99.44,3.01.36.87-.07.98-.49,1.77-.7.87-.24,2.01.29,2.87.38.99.11,2.81.21,3.78-.06.72-.2,1.13-.89,1.88-.95.35-.03.71.23,1.03.29.89.16,1.85.08,2.76.08,1.62,0,2.87-.02,4.4-.26,1.1-.17,2.28.13,3.34-.05.8-.13,1.43-.8,2.33-.72.54.05.82.38,1.27.54.69.25,1.4.36,2.14.43,2.12.21,3.69-.18,5.7-.54,1.35-.24,2.95-.06,4.35-.06.75,0,1.79.19,2.48-.05.65-.22.36-.36.76-.6.35-.2.83-.27,1.16-.47,1.2-.73,1.35-1.93,1.09-3.04-.2-.88-1.27-1.45-1.57-2.28-.27-.73.25-.99.8-1.48,1.61-1.42,1.16-2.86,1.17-4.63,0-.98.23-2.44,1.69-2.84.25-.07.6.05.8,0,.41-.11.63-.29,1.02-.46.74-.33,1.49-.45,1.78-1.17.25-.59.18-1.05-.38-1.44-.83-.58-2-.74-2.76-1.44-.6-.56-.5-.87-.47-1.61.06-1.51-.5-1.95-1.95-2.93-.76-.51-1.72-1.1-2.07-1.87-.34-.72-.14-1.71-.1-2.44.06-1.06-.01-.91-1.08-1.39-.83-.37-2.69-1.08-3.03-1.79-.39-.79,0-2.19,0-3.03,0-.58-.15-1.31.02-1.87,1.74-.27,1.83-1.11,2.33-2.28.46-1.1.94-2.37,1.78-3.33.75-.85,2.03-1.49,1.57-2.65-.62-1.56-2.39-1.95.03-3.14.72-.35,1.51-.8,2-1.36.48-.09.65-.35.52-.77-.03-.55-.04-1.1-.04-1.64,0-1.31.8-2.21,1.97-3.14,1.08-.86,1.91-1.64,2.54-2.83.23-.43.43-.87.67-1.3v-2.86c-.25-.16-.43-.36-.64-.64Z"/>
    </g>
  </g>
</svg>