<?xml version="1.0" encoding="UTF-8"?>
<svg id="Layer_2" xmlns="http://www.w3.org/2000/svg" viewBox="0 0 1087.59 917.59">
  <defs>
    <style>
      .cls-1 {
        fill: #ebdbbd;
      }
    </style>
  </defs>
  <g id="Layer_1-2" data-name="Layer_1">
    <path class="cls-1" d="M1020.72,353.57c-.44-.53-.91-1.29-1.21-1.89-.6-1.19-.97-1.67-2.13-2.77-.93-.88-1.17-1.6-1.25-2.69-.04-.52.17-1.04.12-1.57-.14-1.35-1.15-1.87-1.8-2.99-1.2-2.08-2.96-3.94-5.22-5.6-2.01-1.47-4.09-1.45-6.46-2.34-2.94-1.1-5.96-.78-9.39-.78-2.24,0-4.49-.02-6.73.02-3.67.05-6.58-.84-10.07-1.4-2.46-.4-4.36-1.13-6.72-1.59-1.95-.38-4.12-.13-6.12-.13-4.62,0-8.3.77-12.91.77-4.36,0-8.28-.77-12.58-1.36-4.01-.55-5.8-2.52-10.02-2.54-3.04-.01-6.1-.02-9.15.01-1.88.02-3.2-.02-4.94-.46-2.98-.74-6.35-.83-9.06-1.92-3-1.2-3.77-2.67-7.17-1.55-2.89.95-5.27,1.03-8.52.68-2.23-.24-4.37-.77-6.58-1.08-4.95-.69-10.06-.29-15.06-.38-4.13-.08-8.62-.08-9.02-3.4-.24-2-.27-2.42-3.67-2.76-2.11-.21-3.73.05-5.72.32-6.62.89-13.44,1.14-20.09,2.01-1.39.18-7.61,2.03-6.14-.8-4.42-1.42-9.59-4.62-14.45-4.67-3-.03-6.01.01-9.01,0-3.77-.01-5.6.19-8.62,1.57-1.05.48.16.39-1.57.82-1.84.46-6.29.07-8.2-.02-3.03-.13-6.37-.63-9.4-.97-4.31-.49-7.95-1.47-11.21-3.35-5.01-2.89-11.95-3.56-18.19-3.51-7.57.06-15.06-2.42-22.83-2.33-8.13.09-16.29,0-24.42,0-6.99,0-13.94.79-20.82,1.75-5.64.79-12.19,2.41-17.46.62-1.66-.56-3.39-1.54-5.09-2.07-2.23-.69-4.72-.31-7.07-.3-2.66.01-5.32-.02-7.98,0-3.22.02-6.22.06-9-1.23-3.17-1.47-6.15-2.46-9.66-3.62-3.11-1.03-10-2.08-12-4.26-1.77-1.93.04-4.46-.71-6.53-.17-.47-.46-.8-.83-1.05H141.98c-.15.48-.38.96-.81,1.43-.92,1-1.99,1.54-2.3,2.8-.48,1.96.71,2.58-1.57,4.21-.91.65-1.98.54-2.92,1.34-.83.7-1,2.05-1.12,2.85-.31,2.22.22,2.99-1.04,5-2.22,3.55-1.3,6.63,2.17,9.56,1.46,1.23,2.92,1.83,3.46,3.25.54,1.42-.05,3.42-.05,4.95,0,3.06,0,6.12,0,9.18,0,2.36-.29,4.81-.04,7.16.12,1.15.02,1.45,1.27,2.29,1.31.88,4.12.64,5.12,1.58.67.63.32,1.14.62,1.79.32.7,1.52,1.73,1.74,2.28,1.1,2.71.49,6.88-.33,9.6-.38,1.28-1.34,3.14.15,4.37,1.03.85,2.39.72,3.77,1.11,3.21.91,2.84,1.62,3.49,3.78.57,1.89,1.5,3.21,3.19,4.4,2.05,1.43,1.5,1.48,2.2,3.71.5,1.58,1.22,2.68,1.16,4.39-.02.61-.22,1.36-.1,1.95.29,1.44,2,2.55,2.24,3.96.35,2.04-2.26,3.63-2.18,5.85.03.94-.7,3.25.13,4.1,1,1.02,4.93,1.6,6.36,2.69,1.82,1.38,1.78,2.47.06,3.68-3.23,2.27-7.24,5.79-6.6,9.34.55,3.07,3.91,3.3,6.66,5.13,2.05,1.36.77,3.08,2.29,4.89,1,1.19,1.66,1.39,2.31,2.67.49.96.99,2.28,1.15,3.29.35,2.13.1,4.55-.03,6.7-.24,3.87-4.72,6.98-7.32,10.29-1.47,1.87-3.44,4.18-3.98,6.24-.25.97-.2,2.75.27,3.7.6,1.21,2.58,1.99,3.04,3.29.78,2.16-1.57,3.69-.21,5.88,1.03,1.66,3.2,3.41,4.82,4.83,2.66,2.33,4.6,1.3,4.46,4.67-.06,1.59-.29,3.04.98,4.46,1.75,1.95,4.3,2.5,4.62,4.87.43,3.16-.85,5.19,1.97,7.85,2.27,2.15,1.36,5.25,1.36,7.92,0,1.31-.23,2.77-.05,4.07.26,1.86,1.98,3.29,2.37,5.12.29,1.36-.34,2.86-.13,4.24.4,2.7,3.11,4.06,4.32,6.49,1.26,2.51,2.37,5.11,2.4,7.75,0,.32.08.58.13.85h36.77s.07,0,.1-.02c2.73-.62,4.43-2.3,6.8-3.21.89-.34,2.18-.4,3.11-.71.86-.29,2.01-1.17,3.03-1.29,2.32-.29,5.94.73,8.53.69,2.73-.04,5.05-.64,7.71-.83,2.77-.19,5.79.03,8.56.04,2.49.01,3.54.14,5.58-.74,2.45-1.06,3.89-1.91,7-1.64,4.94.44,9.15,1.61,14.31,1.59,4.46-.02,8.85.4,12.93-.78,3.4-.98,6.68-.79,10.25-.78,4.9.02,9.81,0,14.71,0,5.15,0,10.3.05,15.44-.02,1.5-.02,3.59-.38,4.52.74.64.77-.51,1.57.56,2.3,1.15.78,4.94-.64,6.51-.7,9.13-.32,17.61.61,26.56-1.54-.16,1.64,4.02,1.4,5.6,1.56,1.57.16,2.53.59,4.08.81,3.23.46,8.27.22,11.52-.21,1.77-.24,3.22-.87,5.03-.58,1.84.3,2.88,1.4,5.03,1.59,3.3.28,5.89-.6,8.87-.86,1.64-.14,3.41.09,5.06.05,2.79-.06,3.47-.72,5.62-1.63,2.81-1.2,4.55.06,7.79.04,2.7-.02,5.43.11,8.12.02,2.97-.1,5.4-.81,8.54-.8,3.58.01,7.37-.25,10.94-.04,2.24.13,4.25.77,6.5.86,1.72.07,3.6-.85,4.97-.74,3.15.26,3.63,3.83,7.81,3.88,1.75.02,3.3-.74,5.01-.88,2.18-.19,4.42.25,6.61-.03,3.72-.46,6.89-.71,10.71-.71,1.29,0,2.62-.07,3.91-.02,1.64.07,3.08.81,4.66.7,2.1-.14,3.83-1.45,6.28-1.52,2.22-.06,3.67.13,5.72.44,2.22.34,4.61.81,6.89.23,1.85-.47,3.14-1.24,5.21-1.43.45-.04,1.58-.14,2.01-.03,1.3.33.89.85,1.71,1.28,2.38,1.24,9.46.35,12.08.35,4.57,0,9.21.28,13.67-.39,2.31-.35,4.77-.11,6.97-.46.75-.12.48-.59,1.35-.6,1.27-.02,2.44.68,3.61.99,3.65.98,8.51.46,12.42.46s6.29-1.01,10.07-.83c2.18.1,2.51,1.27,4.42,1.69,1.87.41,4.72-.27,6.47-.64,7.29-1.54,14.23-.4,21.7-.93,2.48-.18,3.56-1.57,5.61-1.71.93-.07,3.23.81,4.17,1.07,4.04,1.1,11.48,1.21,15.56.13,3.64-.96,6.19-1.1,10.1-1.1,3.39,0,9.41.75,12.22-.44,1.47-.62,2.51-1.95,3.98-2.63,2.32-1.07,2.4-.24,4.73.37,3.57.94,9.95.77,13.66,0,3.29-.68,5.65-2,8.97-1.97,1.77.02,3.55-.02,5.32,0,2.1.02,2.58-.43,4.24-.71,3.66-.62,7.47-.15,10.6,1.1,2.29.92,4,1.16,6.63,1.18,1.68.01,5.1.41,6.73.04,1.27-.28,1.42-1.19,2.65-1.58,1.43-.45,4.73-.04,6.26-.04,5.15,0,10.47.39,15.42-.75,2.61-.6,4.35-1.78,6.71-2.63,2.76-1,6.02-.38,9.08-.58,3.5-.22,5.9-.88,8.99-1.83,3.17-.97,4.14-.03,7.25.76,3,.76,7,.52,10-.04,4.36-.81,9.38-.39,13.97-.39,2.24,0,4.48-.03,6.72,0,.65,0,1.65.14,2.24.05.37-.06,1.14-.68,1.16-.69,4.64-.44,9.02,2.03,13.28,2.8,4.92.89,7.9-2.17,12.77-2.17,2.22,0,4.55-.16,6.75-.02,2.72.17,5.42,1.06,8.19.86,2.38-.17,2.67-1.18,4.83-1.71,2.36-.58,5.46.69,7.81.92,2.7.26,7.65.51,10.3-.16,1.95-.49,3.07-2.16,5.13-2.32.95-.07,1.92.56,2.81.7,2.42.38,5.05.19,7.5.19,4.41-.02,7.8-.06,11.98-.62,2.98-.4,6.21.31,9.08-.12,2.19-.32,3.9-1.94,6.35-1.75,1.46.12,2.23.92,3.46,1.31,1.87.6,3.8.86,5.82,1.04,5.76.51,10.04-.45,15.5-1.3,3.67-.58,8.04-.15,11.83-.13,2.04,0,4.86.45,6.74-.11,1.77-.53.97-.88,2.07-1.45.95-.49,2.25-.65,3.16-1.14,3.27-1.76,3.67-4.69,2.97-7.38-.56-2.14-3.46-3.53-4.28-5.53-.73-1.78.67-2.39,2.18-3.58,4.39-3.45,3.16-6.94,3.19-11.23.02-2.37.63-5.91,4.59-6.9.67-.17,1.63.12,2.17-.02,1.12-.28,1.73-.71,2.76-1.11,2.02-.79,4.05-1.1,4.85-2.83.67-1.43.5-2.56-1.03-3.5-2.27-1.4-5.43-1.79-7.5-3.51-1.64-1.36-1.37-2.12-1.29-3.92.17-3.67-1.37-4.74-5.3-7.11-2.07-1.25-4.67-2.68-5.64-4.53-.92-1.75-.37-4.14-.26-5.92.17-2.57-.03-2.21-2.93-3.37-2.25-.9-7.31-2.62-8.24-4.33-1.05-1.93.02-5.31.02-7.36,0-1.4-.41-3.19.05-4.54,4.72-.65,4.99-2.7,6.33-5.54,1.26-2.68,2.55-5.75,4.84-8.08,2.03-2.07,5.52-3.62,4.27-6.42-1.68-3.78-6.5-4.73.09-7.62,1.96-.86,4.1-1.94,5.45-3.3,1.31-.23,1.78-.85,1.41-1.86-.07-1.33-.11-2.66-.11-3.99,0-3.17,2.17-5.35,5.36-7.61,2.94-2.08,5.2-3.99,6.9-6.86.62-1.05,1.17-2.12,1.83-3.15v-6.95c-.67-.4-1.17-.87-1.73-1.55Z"/>
  </g>
</svg>