<?xml version="1.0" encoding="UTF-8"?>
<svg id="Layer_2" xmlns="http://www.w3.org/2000/svg" viewBox="0 0 700.79 834.58">
  <defs>
    <style>
      .cls-1 {
        fill: #31233a;
      }

      .cls-2 {
        fill: #ebdbbd;
      }
    </style>
  </defs>
  <g id="Layer_1-2" data-name="Layer_1">
    <g>
      <path class="cls-2" d="M663.78,281.66c-.65-1.99-.18-2.7-.14-4.85.02-.77.05-2.09-.45-2.79-.57-.8-1.33-.74-1.9-1.4-1.4-1.65-.49-2.21-.6-4.11-.07-1.23-.75-1.78-1.28-2.78-.25-.47-.35-.94-.4-1.41l-296.34-9.95c-2.25,4.45-9.19,2.26-12.3,4.92-5.99,5.12-11.65,5.75-18.12,5.43-4.06-.2-7.7-2.91-10.62-6.48-2.03.78-3.89,1.54-5.85,2.6-2.11,1.14-4.21.98-6.47.85-1.87-.11-3.74-.18-5.61-.29-1.65-.1-3.36-.55-5.01.02-1.26.44-2.59,1.32-3.82,1.8-3.92,1.52-8.33-.28-12.2-1.26-4.72-1.19-9.51-2.21-14.42-2.48-5.72-.31-11.46-.52-17.16-.92-5.45-.38-11,1.73-16.32,1.38-4.38-.28-9.34.1-13.2,2.69-2.51,1.69-5.19,2.49-8.28,2.8-2.17.22-4.58.57-6.72.58-1.35,0-4.52.22-5.76-.29-1.16-.48-.33-.35-1-.85-1.96-1.45-3.22-1.71-5.87-1.84-2.11-.1-4.22-.26-6.34-.34-3.42-.13-7.44,2.76-10.71,3.95.69,2.78-3.46.77-4.41.54-4.57-1.09-9.33-1.59-13.88-2.7-1.36-.33-2.47-.65-3.98-.52-2.43.2-2.5.6-2.91,2.52-.68,3.18-3.83,3.01-6.74,2.94-3.53-.1-7.07-.68-10.63-.2-1.59.21-3.16.64-4.75.79-2.32.22-3.99.05-5.91-.97-2.26-1.2-2.97.18-5.23,1.22-2.04.94-4.42.9-6.6,1.51-1.27.35-2.21.35-3.53.25-2.13-.15-4.29-.26-6.43-.36-2.97-.14-4.46,1.7-7.34,2.07-3.09.4-5.94,1-9,.84-3.24-.18-5.73-1.06-8.98-1.23-1.41-.07-2.9-.4-4.32-.11-1.71.35-3.14.99-4.91,1.28-2.53.41-4.68,1.16-7.25.97-1.57-.12-3.15-.18-4.73-.27-2.41-.13-4.49-.56-6.69.4-1.77.77-3.23.67-4.82,2.01-1.79,1.51-3.25,3.24-4.34,5.2-.59,1.06-1.37,1.52-1.62,2.82-.1.5-.02,1.01-.1,1.51-.18,1.05-.43,1.73-1.19,2.54-.94,1.01-1.26,1.46-1.83,2.59-.28.56-.7,1.28-1.07,1.77-.47.63-.88,1.07-1.4,1.43l-.83,6.7c.34,1.02.6,2.07.92,3.1.86,2.83,2.21,4.75,4.04,6.87,1.98,2.3,3.24,4.48,2.86,7.54-.16,1.28-.34,2.56-.55,3.84-.38.96-.12,1.58.77,1.85.79,1.37,2.16,2.48,3.44,3.39,4.29,3.04.79,3.77-.84,7.35-1.21,2.65,1.05,4.28,2.24,6.35,1.33,2.33,1.87,5.34,2.44,7.97.6,2.78.55,4.77,3.79,5.57.17,1.32-.34,3.03-.5,4.38-.24,1.97.11,5.27-.86,7.09-.86,1.62-4.62,3.08-6.31,3.86-2.17,1-2.27.66-2.46,3.14-.13,1.72-.03,4.04-.88,5.69-.9,1.75-2.9,3.03-4.5,4.15-3.04,2.13-4.25,3.1-4.57,6.65-.16,1.74-.06,2.47-1.37,3.72-1.65,1.58-3.92,1.83-5.68,3.09-1.18.85-1.44,1.93-1.14,3.34.36,1.69,1.75,2.07,3.07,2.91.68.43,1.06.87,1.81,1.18.36.15,1.07-.09,1.52.1,2.66,1.1,2.67,4.54,2.4,6.83-.49,4.14-1.77,7.45.91,10.94.92,1.2,1.83,1.85,1.11,3.53-.81,1.89-3.02,3.12-3.66,5.16-.81,2.57-.88,5.41,1.21,7.23.58.51,1.48.71,2.09,1.22.71.59.11.9,1.29,1.48,1.26.62,3.29.29,4.73.36,2.66.13,5.78-.12,8.29.58,3.74,1.03,6.63,2.11,10.74,1.84,1.44-.1,2.84-.28,4.22-.78.91-.33,1.54-1.08,2.58-1.13,1.74-.09,2.75,1.54,4.25,1.93,1.97.52,4.32-.05,6.37.45,2.87.7,5.25.87,8.34,1.05,1.72.1,3.55.38,5.29.1.64-.1,1.4-.68,2.06-.57,1.43.23,2.01,1.88,3.33,2.43,1.78.74,5.29.69,7.22.54,1.68-.13,4.01-1.23,5.6-.59,1.45.59,1.54,1.58,3.19,1.83,1.93.3,3.93-.46,5.86-.52,1.56-.05,3.18.19,4.74.27,3.42.19,5.15,3.25,8.72,2.58,3.09-.59,6.46-2.8,9.67-2.2.02,0,.48.64.73.7.4.11,1.13.02,1.58.04,1.58.06,3.15.17,4.72.26,3.22.17,6.8-.05,9.77.9,2.04.65,4.82,1.04,7.02.42,2.28-.64,3.07-1.51,5.19-.46,2.06,1.03,3.67,1.75,6.1,2.1,2.12.3,4.49-.17,6.31.9,1.55.91,2.64,2.12,4.4,2.79,3.35,1.28,7.13,1.1,10.75,1.3,1.08.06,3.45-.22,4.4.27.82.42.82,1.3,1.68,1.62,1.1.41,3.55.16,4.74.21,1.85.08,3.08-.09,4.8-.89,2.35-1.09,5.08-1.39,7.58-.66,1.13.33,1.42.78,2.9.84,1.25.05,2.49.16,3.74.21,2.33.1,3.84,1.46,6.07,2.24,2.52.88,6.98,1.28,9.6.51,1.71-.5,1.86-1.29,3.37-.18.95.71,1.53,2.03,2.49,2.69,1.83,1.26,6.16.76,8.53.89,2.75.15,4.52.38,6.97,1.44,2.74,1.2,7.98,1.37,10.95.46.69-.21,2.41-.97,3.06-.87,1.42.22,2.02,1.6,3.74,1.86,5.19.79,10.19-.04,15.14,1.72,1.18.42,3.11,1.19,4.47.86,1.39-.34,1.76-1.44,3.3-1.46,2.68-.03,4.31,1.04,6.98,1.18,2.75.15,6.1.83,8.79.02.86-.26,1.76-.89,2.65-.82.61.05.37.49.88.63,1.5.42,3.26.29,4.84.71,3.05.81,6.35.72,9.56.89,1.84.1,6.71,1.23,8.53.12.63-.38.4-.89,1.36-1.17.31-.09,1.1.05,1.41.11,1.44.26,2.25,1.06,3.49,1.58,1.53.64,3.26.28,4.87.04,1.48-.23,2.52-.36,4.07-.21,1.71.16,2.77,1.49,4.23,1.7,1.1.16,2.2-.5,3.36-.5.91,0,1.84.12,2.74.17,2.68.14,4.88.51,7.44,1.09,1.51.35,3.13.01,4.64.28,1.19.21,2.19,1,3.42,1.04,2.94.11,3.71-3.32,5.95-3.45.98-.06,2.18.9,3.4.9,1.59,0,3.08-.54,4.67-.58,2.53-.07,5.17.33,7.68.45,2.2.11,3.83.89,5.9,1.09,1.88.19,3.82.17,5.71.29,2.27.14,3.64-1,5.48.26,1.4.96,1.8,1.62,3.76,1.78,1.16.1,2.43-.06,3.57.14,2.06.36,3.78,1.31,6.13,1.16,1.53-.1,2.39-1.12,3.72-1.34,1.3-.22,2.25.45,3.46.75,2.23.54,5.75.97,8.07.64,1.12-.16,1.84-.53,2.96-.63,1.13-.1,4.04.29,4.12-1.3,6.03,2.41,12.1,1.84,18.48,2.49,1.1.11,3.59,1.62,4.49.92.84-.65.13-1.47.66-2.19.78-1.04,2.21-.61,3.26-.54,3.61.25,7.23.4,10.85.6,3.45.19,6.89.39,10.34.56,2.51.12,4.84.07,7.11,1.14,2.73,1.28,5.86,1.05,8.99,1.24,3.62.21,6.72-.76,10.24-1,2.22-.15,3.13.73,4.72,1.84,1.33.92,2.08.84,3.83.92,1.95.09,4.1,0,6.02.29,1.85.27,3.41.95,5.32,1.09,1.82.13,4.48-.71,6.08-.34.7.16,1.41,1.05,1.98,1.36.62.34,1.51.44,2.1.8,1.56.97,2.55,2.65,4.4,3.35.02,0,.05.01.07.02l25.84,1.39c.07-.26.16-.51.2-.82.33-2.55,1.42-5.01,2.61-7.38,1.14-2.29,3.21-3.51,3.81-6.09.3-1.32.04-2.79.41-4.09.49-1.75,1.87-3.06,2.27-4.84.28-1.25.29-2.66.45-3.93.32-2.57.05-5.6,1.9-7.58,2.29-2.46,1.63-4.46,2.31-7.49.51-2.27,2.37-2.7,3.83-4.51,1.06-1.32,1.07-2.73,1.22-4.26.31-3.26,1.55-2.19,3.69-4.33,1.3-1.3,3.04-2.91,3.96-4.47,1.21-2.06-.25-3.62.55-5.68.48-1.23,1.96-1.91,2.53-3.06.45-.9.69-2.61.63-3.56-.13-2.01-1.24-4.31-2.05-6.17-1.44-3.28-4.21-6.45-3.92-10.19.16-2.08.28-4.42.77-6.46.23-.97.74-2.21,1.2-3.13.61-1.21,1.1-1.38,1.94-2.48,1.28-1.68.58-3.39,2.19-4.62,2.14-1.65,4.53-1.75,5.29-4.69.87-3.4-1.53-6.94-3.53-9.25-1.06-1.23-.96-2.28.48-3.55,1.13-.99,3.96-1.4,4.79-2.35.69-.79.45-3.05.58-3.95.32-2.14-1.33-3.76-.84-5.72.34-1.35,1.67-2.35,2.04-3.73.15-.57.11-1.3.16-1.89.16-1.65.8-2.68,1.34-4.19.76-2.12.38-2.18,1.99-3.49,1.33-1.08,2.14-2.32,2.76-4.12.71-2.06.54-2.75,2.9-3.51,1.02-.33,1.96-.14,2.78-.93,1.19-1.13.74-2.96.62-4.21-.25-2.64-.19-6.69.91-9.26.22-.52,1.19-1.47,1.5-2.13.29-.62.11-1.12.65-1.7.82-.87,2.76-.53,3.78-1.33.97-.76.94-1.06,1.16-2.16.45-2.25.54-4.63.82-6.9.36-2.95.73-5.9,1.09-8.85.18-1.48,0-3.43.55-4.78.55-1.34,1.64-1.86,2.82-3,2.78-2.69,3.8-5.62,2.66-9.13Z"/>
      <path class="cls-1" d="M670.82,276.78c-.65-1.99-.18-2.7-.14-4.85.02-.77.05-2.09-.45-2.79-.57-.8-1.33-.74-1.9-1.4-1.4-1.65-.49-2.21-.6-4.11-.07-1.23-.75-1.78-1.28-2.78-.25-.47-.35-.94-.4-1.41l-290.85-3.38c-.92.52-12.11,2.95-13.03,3.3-2.28,5.82-8.1-4.11-11.8-.06-5.5,6.03-9.43.59-15.9.27-4.61-.23-10.9,1.47-13.98-2.8-1.34.23-2.71.14-4.14.05-1.87-.11-3.74-.18-5.61-.29-1.65-.1-3.36-.55-5.01.02-1.26.44-2.59,1.32-3.82,1.8-3.92,1.52-8.33-.28-12.2-1.26-4.72-1.19-9.51-2.21-14.42-2.48-5.72-.31-11.46-.52-17.16-.92-5.45-.38-11,1.73-16.32,1.38-4.38-.28-9.34.1-13.2,2.69-2.51,1.69-5.19,2.49-8.28,2.8-2.17.22-4.58.57-6.72.58-1.35,0-4.52.22-5.76-.29-1.16-.48-.33-.35-1-.85-1.96-1.45-3.22-1.71-5.87-1.84-2.11-.1-4.22-.26-6.34-.34-3.42-.13-7.44,2.76-10.71,3.95.69,2.78-3.46.77-4.41.54-4.57-1.09-9.33-1.59-13.88-2.7-1.36-.33-2.47-.65-3.98-.52-2.43.2-2.5.6-2.91,2.52-.68,3.18-3.83,3.01-6.74,2.94-3.53-.1-7.07-.68-10.63-.2-1.59.21-3.16.64-4.75.79-2.32.22-3.99.05-5.91-.97-2.26-1.2-2.97.18-5.23,1.22-2.04.94-4.42.9-6.6,1.51-1.27.35-2.21.35-3.53.25-2.13-.15-4.29-.26-6.43-.36-2.97-.14-4.46,1.7-7.34,2.07-3.09.4-5.94,1-9,.84-3.24-.18-5.73-1.06-8.98-1.23-1.41-.07-2.9-.4-4.32-.11-1.71.35-3.14.99-4.91,1.28-2.53.41-4.68,1.16-7.25.97-1.57-.12-3.15-.18-4.73-.27-2.41-.13-4.49-.56-6.69.4-1.77.77-3.23.67-4.82,2.01-1.79,1.51-3.25,3.24-4.34,5.2-.59,1.06-1.37,1.52-1.62,2.82-.1.5-.02,1.01-.1,1.51-.18,1.05-.43,1.73-1.19,2.54-.94,1.01-1.26,1.46-1.83,2.59-.28.56-.7,1.28-1.07,1.77-.47.63-.88,1.07-1.4,1.43l-.83,6.7c.34,1.02.6,2.07.92,3.1.86,2.83,2.21,4.75,4.04,6.87,1.98,2.3,3.24,4.48,2.86,7.54-.16,1.28-.34,2.56-.55,3.84-.38.96-.12,1.58.77,1.85.79,1.37,2.16,2.48,3.44,3.39,4.29,3.04.79,3.77-.84,7.35-1.21,2.65,1.05,4.28,2.24,6.35,1.33,2.33,1.87,5.34,2.44,7.97.6,2.78.55,4.77,3.79,5.57.17,1.32-.34,3.03-.5,4.38-.24,1.97.11,5.27-.86,7.09-.86,1.62-4.62,3.08-6.31,3.86-2.17,1-2.27.66-2.46,3.14-.13,1.72-.03,4.04-.88,5.69-.9,1.75-2.9,3.03-4.5,4.15-3.04,2.13-4.25,3.1-4.57,6.65-.16,1.74-.06,2.47-1.37,3.72-1.65,1.58-3.92,1.83-5.69,3.09-1.18.85-1.44,1.93-1.14,3.34.36,1.69,1.75,2.07,3.07,2.91.68.43,1.06.87,1.81,1.18.36.15,1.07-.09,1.52.1,2.66,1.1,2.67,4.54,2.4,6.83-.49,4.14-1.77,7.45.91,10.94.92,1.2,1.83,1.85,1.11,3.53-.81,1.89-3.02,3.12-3.66,5.16-.81,2.57-.88,5.41,1.21,7.23.58.51,1.48.71,2.09,1.22.71.59.11.9,1.29,1.48,1.26.62,3.29.29,4.73.36,2.66.13,5.78-.12,8.29.58,3.74,1.03,6.63,2.11,10.74,1.84,1.44-.1,2.84-.28,4.22-.78.91-.33,1.54-1.08,2.58-1.13,1.74-.09,2.75,1.54,4.25,1.93,1.97.52,4.32-.05,6.37.45,2.87.7,5.25.87,8.34,1.05,1.72.1,3.55.38,5.29.1.64-.1,1.4-.68,2.06-.57,1.43.23,2.01,1.88,3.33,2.43,1.78.74,5.29.69,7.22.54,1.68-.13,4.01-1.23,5.6-.59,1.45.59,1.54,1.58,3.19,1.83,1.93.3,3.93-.46,5.86-.52,1.56-.05,3.18.19,4.74.27,3.42.19,5.15,3.25,8.72,2.58,3.09-.59,6.46-2.8,9.67-2.2.02,0,.48.64.73.7.4.11,1.13.02,1.58.04,1.58.06,3.15.17,4.72.26,3.22.17,6.8-.05,9.77.9,2.04.65,4.82,1.04,7.02.42,2.28-.64,3.07-1.51,5.19-.46,2.06,1.03,3.67,1.75,6.1,2.1,2.12.3,4.49-.17,6.31.9,1.55.91,2.64,2.12,4.4,2.79,3.35,1.28,7.13,1.1,10.75,1.3,1.08.06,3.45-.22,4.4.27.82.42.82,1.3,1.68,1.62,1.1.41,3.55.16,4.74.21,1.85.08,3.08-.09,4.8-.89,2.35-1.09,5.08-1.39,7.58-.66,1.13.33,1.42.78,2.9.84,1.25.05,2.49.16,3.74.21,2.33.1,3.84,1.46,6.07,2.24,2.52.88,6.98,1.28,9.6.51,1.71-.5,1.86-1.29,3.37-.18.95.71,1.53,2.03,2.49,2.69,1.83,1.26,6.16.76,8.53.89,2.75.15,4.52.38,6.97,1.44,2.74,1.2,7.98,1.37,10.95.46.69-.21,2.41-.97,3.06-.87,1.42.22,2.02,1.6,3.74,1.86,5.19.79,10.19-.04,15.14,1.72,1.18.42,3.11,1.19,4.47.86,1.39-.34,1.76-1.44,3.3-1.46,2.68-.03,4.31,1.04,6.98,1.18,2.75.15,6.1.83,8.79.02.86-.26,1.76-.89,2.65-.82.61.05.37.49.88.63,1.5.42,3.26.29,4.84.71,3.05.81,6.35.72,9.56.89,1.84.1,6.71,1.23,8.53.12.63-.38.4-.89,1.36-1.17.31-.09,1.1.05,1.41.11,1.44.26,2.25,1.06,3.49,1.58,1.53.64,3.26.28,4.87.04,1.48-.23,2.52-.36,4.07-.21,1.71.16,2.77,1.49,4.23,1.7,1.1.16,2.2-.5,3.36-.5.91,0,1.84.12,2.74.17,2.68.14,4.88.51,7.44,1.09,1.51.35,3.13.01,4.64.28,1.19.21,2.19,1,3.42,1.04,2.94.11,3.71-3.32,5.95-3.45.98-.06,2.18.9,3.4.9,1.59,0,3.08-.54,4.67-.58,2.53-.07,5.17.33,7.68.45,2.2.11,3.83.89,5.9,1.09,1.88.19,3.82.17,5.71.29,2.27.14,3.64-1,5.48.26,1.4.96,1.8,1.62,3.76,1.78,1.16.1,2.43-.06,3.57.14,2.06.36,3.78,1.31,6.13,1.16,1.53-.1,2.39-1.12,3.72-1.34,1.3-.22,2.25.45,3.46.74,2.23.54,5.75.97,8.07.64,1.12-.16,1.84-.53,2.96-.63,1.13-.1,4.04.29,4.12-1.3,6.03,2.41,12.1,1.84,18.48,2.49,1.1.11,3.59,1.62,4.49.92.84-.65.13-1.47.66-2.19.78-1.04,2.21-.61,3.26-.54,3.61.25,7.23.4,10.85.6,3.45.19,6.89.39,10.34.56,2.51.12,4.84.07,7.11,1.14,2.73,1.28,5.86,1.05,8.99,1.24,3.62.21,6.72-.76,10.24-1,2.22-.15,3.13.73,4.72,1.84,1.33.92,2.08.84,3.83.92,1.95.09,4.1,0,6.02.29,1.85.27,3.41.95,5.32,1.09,1.82.13,4.48-.71,6.08-.34.7.16,1.41,1.05,1.98,1.36.62.34,1.51.44,2.1.8,1.56.97,2.55,2.65,4.4,3.35.02,0,.05.01.07.02l25.84,1.39c.07-.26.16-.51.2-.82.33-2.55,1.42-5.01,2.61-7.38,1.14-2.29,3.21-3.51,3.81-6.09.3-1.32.04-2.79.41-4.09.49-1.75,1.87-3.06,2.27-4.84.28-1.25.29-2.66.45-3.93.32-2.57.05-5.6,1.9-7.58,2.29-2.46,1.63-4.46,2.31-7.49.51-2.27,2.37-2.7,3.83-4.51,1.06-1.32,1.07-2.73,1.22-4.26.31-3.26,1.55-2.19,3.69-4.33,1.3-1.3,3.04-2.91,3.96-4.47,1.21-2.06-.25-3.62.55-5.68.48-1.23,1.96-1.91,2.53-3.06.45-.9.69-2.61.63-3.56-.13-2.01-1.24-4.31-2.05-6.17-1.44-3.28-4.21-6.45-3.92-10.19.16-2.08.28-4.42.77-6.46.23-.97.74-2.21,1.2-3.13.61-1.21,1.1-1.38,1.94-2.48,1.28-1.68.58-3.39,2.19-4.62,2.14-1.65,4.53-1.75,5.29-4.69.87-3.4-1.53-6.94-3.53-9.25-1.06-1.23-.96-2.28.48-3.55,1.13-.99,3.96-1.4,4.79-2.35.69-.79.45-3.05.58-3.95.32-2.14-1.33-3.76-.84-5.72.34-1.35,1.67-2.35,2.04-3.73.15-.57.11-1.3.16-1.89.16-1.65.8-2.68,1.34-4.19.76-2.12.38-2.18,1.99-3.49,1.33-1.08,2.14-2.32,2.76-4.12.71-2.06.54-2.75,2.9-3.51,1.02-.33,1.96-.14,2.78-.93,1.19-1.13.74-2.96.62-4.21-.25-2.64-.19-6.69.91-9.26.22-.52,1.19-1.47,1.5-2.13.29-.62.11-1.12.65-1.7.82-.87,2.76-.53,3.78-1.33.97-.76.94-1.06,1.16-2.16.45-2.25.54-4.63.82-6.9.36-2.95.73-5.9,1.09-8.85.18-1.48,0-3.43.55-4.78.55-1.34,1.64-1.86,2.82-3,2.78-2.69,3.8-5.62,2.66-9.13Z"/>
    </g>
  </g>
</svg>